M48
;DRILL file {KiCad 4.0.4-stable} date 12/24/16 13:41:48
;FORMAT={-:-/ absolute / inch / decimal}
FMAT,2
INCH,TZ
T1C0.016
T2C0.030
T3C0.031
T4C0.032
T5C0.035
T6C0.039
T7C0.040
T8C0.050
T9C0.071
T10C0.080
T11C0.120
%
G90
G05
M72
T1
X3.65Y-3.03
X4.07Y-2.96
X4.6Y-2.83
X4.82Y-2.9
X5.31Y-2.93
X5.54Y-3.
X5.62Y-1.62
X6.14Y-1.66
X6.66Y-1.7
X7.18Y-1.74
X7.39Y-2.88
X7.7Y-1.78
T2
X5.69Y-2.94
X5.99Y-1.91
X6.39Y-3.04
X6.51Y-1.91
X6.95Y-3.02
X7.03Y-1.91
X7.07Y-3.04
X7.55Y-1.91
X7.63Y-3.02
X8.07Y-1.91
T3
X3.36Y-3.11
X3.4584Y-3.11
X3.8Y-3.725
X3.8Y-4.025
X3.8Y-4.175
X3.9Y-3.725
X3.9Y-4.025
X3.925Y-4.45
X3.925Y-4.75
X4.Y-3.725
X4.Y-4.025
X4.025Y-4.45
X4.025Y-4.75
X4.1Y-3.725
X4.1Y-4.025
X4.125Y-4.45
X4.125Y-4.75
X4.225Y-4.45
X4.225Y-4.75
X4.275Y-3.825
X4.375Y-4.25
X4.475Y-3.725
X4.475Y-4.025
X4.5Y-4.45
X4.5Y-4.75
X4.575Y-3.725
X4.575Y-4.025
X4.6Y-4.45
X4.6Y-4.75
X4.675Y-3.725
X4.675Y-4.025
X4.7Y-4.45
X4.7Y-4.75
X4.775Y-3.725
X4.775Y-4.025
X4.8Y-4.45
X4.8Y-4.75
X4.95Y-3.825
X5.025Y-4.35
X5.15Y-3.825
X5.15Y-4.125
X5.15Y-4.55
X5.15Y-4.85
X5.25Y-3.825
X5.25Y-4.125
X5.25Y-4.55
X5.25Y-4.85
X5.35Y-3.825
X5.35Y-4.125
X5.35Y-4.55
X5.35Y-4.85
X5.45Y-3.825
X5.45Y-4.125
X5.45Y-4.55
X5.45Y-4.85
X5.625Y-3.925
X5.7Y-4.35
X5.825Y-3.825
X5.825Y-4.125
X5.825Y-4.55
X5.825Y-4.85
X5.925Y-3.825
X5.925Y-4.125
X5.925Y-4.55
X5.925Y-4.85
X6.025Y-3.825
X6.025Y-4.125
X6.025Y-4.55
X6.025Y-4.85
X6.125Y-3.825
X6.125Y-4.125
X6.125Y-4.55
X6.125Y-4.85
X6.3Y-3.925
X6.4Y-4.45
X6.525Y-3.925
X6.525Y-4.225
X6.525Y-4.65
X6.525Y-4.95
X6.625Y-3.925
X6.625Y-4.225
X6.625Y-4.65
X6.625Y-4.95
X6.725Y-3.925
X6.725Y-4.225
X6.725Y-4.65
X6.725Y-4.95
X6.825Y-3.925
X6.825Y-4.225
X6.825Y-4.65
X6.825Y-4.95
X7.Y-4.025
X7.075Y-4.45
X7.2Y-3.925
X7.2Y-4.225
X7.2Y-4.65
X7.2Y-4.95
X7.3Y-3.925
X7.3Y-4.225
X7.3Y-4.65
X7.3Y-4.95
X7.4Y-3.925
X7.4Y-4.225
X7.4Y-4.65
X7.4Y-4.95
X7.5Y-3.925
X7.5Y-4.225
X7.5Y-4.65
X7.5Y-4.95
X7.675Y-4.025
X8.075Y-4.525
X8.25Y-5.0781
X8.25Y-5.275
X8.95Y-4.0531
X8.95Y-4.25
X8.975Y-5.075
X8.975Y-5.2719
X9.05Y-4.925
T4
X3.7016Y-4.175
X4.275Y-3.7266
X4.375Y-4.3484
X4.95Y-3.7266
X5.025Y-4.4484
X5.625Y-3.8266
X5.7Y-4.4484
X6.3Y-3.8266
X6.4Y-4.5484
X7.Y-3.9266
X7.075Y-4.5484
X7.675Y-3.9266
X8.075Y-4.4266
X8.9516Y-4.925
T5
X8.25Y-4.3281
X8.25Y-4.525
X8.6Y-5.075
X8.6Y-5.2719
T6
X3.33Y-2.14
X3.33Y-2.24
X3.33Y-2.34
X3.33Y-2.66
X3.33Y-2.76
X3.33Y-2.86
X3.3301Y-3.26
X3.4901Y-3.26
X3.54Y-1.91
X3.64Y-1.91
X3.725Y-3.075
X3.725Y-3.175
X3.725Y-3.3
X3.725Y-3.6
X3.74Y-1.91
X3.87Y-2.81
X3.87Y-2.96
X3.875Y-3.2
X3.875Y-3.6
X3.925Y-4.175
X3.925Y-4.325
X3.925Y-4.875
X3.925Y-5.025
X4.025Y-3.2
X4.025Y-3.6
X4.06Y-1.91
X4.16Y-1.91
X4.17Y-2.81
X4.17Y-2.96
X4.175Y-3.075
X4.175Y-3.175
X4.175Y-3.3
X4.175Y-3.6
X4.225Y-4.175
X4.225Y-4.325
X4.225Y-4.875
X4.225Y-5.025
X4.26Y-1.91
X4.4Y-3.075
X4.4Y-3.175
X4.4Y-3.3
X4.4Y-3.6
X4.43Y-2.83
X4.475Y-2.975
X4.5Y-4.175
X4.5Y-4.325
X4.5Y-4.875
X4.5Y-5.025
X4.55Y-3.2
X4.55Y-3.6
X4.58Y-1.91
X4.68Y-1.91
X4.7Y-3.2
X4.7Y-3.6
X4.73Y-2.83
X4.775Y-2.975
X4.78Y-1.91
X4.8Y-4.175
X4.8Y-4.325
X4.8Y-4.875
X4.8Y-5.025
X4.85Y-3.075
X4.85Y-3.175
X4.85Y-3.3
X4.85Y-3.6
X5.075Y-3.175
X5.075Y-3.275
X5.075Y-3.4
X5.075Y-3.7
X5.1Y-1.91
X5.15Y-2.925
X5.15Y-3.075
X5.15Y-4.275
X5.15Y-4.425
X5.15Y-4.975
X5.15Y-5.125
X5.2Y-1.91
X5.225Y-3.3
X5.225Y-3.7
X5.3Y-1.91
X5.375Y-3.3
X5.375Y-3.7
X5.45Y-2.925
X5.45Y-3.075
X5.45Y-4.275
X5.45Y-4.425
X5.45Y-4.975
X5.45Y-5.125
X5.525Y-3.175
X5.525Y-3.275
X5.525Y-3.4
X5.525Y-3.7
X5.62Y-1.91
X5.72Y-1.91
X5.75Y-3.175
X5.75Y-3.275
X5.75Y-3.4
X5.75Y-3.7
X5.82Y-1.91
X5.825Y-2.925
X5.825Y-3.075
X5.825Y-4.275
X5.825Y-4.425
X5.825Y-4.975
X5.825Y-5.125
X5.9Y-3.3
X5.9Y-3.7
X6.05Y-3.3
X6.05Y-3.7
X6.125Y-2.925
X6.125Y-3.075
X6.125Y-4.275
X6.125Y-4.425
X6.125Y-4.975
X6.125Y-5.125
X6.14Y-1.91
X6.2Y-3.175
X6.2Y-3.275
X6.2Y-3.4
X6.2Y-3.7
X6.24Y-1.91
X6.34Y-1.91
X6.45Y-3.275
X6.45Y-3.375
X6.45Y-3.5
X6.45Y-3.8
X6.525Y-3.025
X6.525Y-3.175
X6.525Y-4.375
X6.525Y-4.525
X6.525Y-5.075
X6.525Y-5.225
X6.6Y-3.4
X6.6Y-3.8
X6.66Y-1.91
X6.75Y-3.4
X6.75Y-3.8
X6.76Y-1.91
X6.825Y-3.025
X6.825Y-3.175
X6.825Y-4.375
X6.825Y-4.525
X6.825Y-5.075
X6.825Y-5.225
X6.86Y-1.91
X6.9Y-3.275
X6.9Y-3.375
X6.9Y-3.5
X6.9Y-3.8
X7.125Y-3.275
X7.125Y-3.375
X7.125Y-3.5
X7.125Y-3.8
X7.18Y-1.91
X7.2Y-3.025
X7.2Y-3.175
X7.2Y-4.375
X7.2Y-4.525
X7.2Y-5.075
X7.2Y-5.225
X7.275Y-3.4
X7.275Y-3.8
X7.28Y-1.91
X7.38Y-1.91
X7.425Y-3.4
X7.425Y-3.8
X7.5Y-3.025
X7.5Y-3.175
X7.5Y-4.375
X7.5Y-4.525
X7.5Y-5.075
X7.5Y-5.225
X7.575Y-3.275
X7.575Y-3.375
X7.575Y-3.5
X7.575Y-3.8
X7.7Y-1.91
X7.8Y-1.91
X7.9Y-1.91
X7.9749Y-5.275
X8.2Y-4.6999
X8.2Y-4.8499
X8.22Y-1.91
X8.32Y-1.91
X8.42Y-1.91
X8.7501Y-4.675
X8.825Y-4.4001
X8.825Y-4.5251
X9.05Y-4.475
X9.05Y-4.575
X9.05Y-4.675
T7
X3.4Y-4.199
X3.4Y-4.307
X3.4Y-4.417
X3.4Y-4.525
X3.4Y-4.633
X3.4Y-4.743
X3.4Y-4.843
X3.5Y-4.145
X3.5Y-4.255
X3.5Y-4.36
X3.5Y-4.47
X3.5Y-4.58
X3.5Y-4.69
X3.5Y-4.795
X3.5Y-4.905
T8
X3.3301Y-3.66
X3.4901Y-3.66
X7.9749Y-4.875
X8.425Y-4.4001
X8.425Y-4.5251
X8.6Y-4.6999
X8.6Y-4.8499
X8.7501Y-5.075
T9
X8.8085Y-2.2
X8.8085Y-2.3654
X8.8085Y-2.5307
X8.8085Y-2.6961
X8.8085Y-3.15
X8.8085Y-3.3154
X8.8085Y-3.4807
X8.8085Y-3.6461
X9.025Y-2.2
X9.025Y-2.3654
X9.025Y-2.5307
X9.025Y-2.6961
X9.025Y-3.15
X9.025Y-3.3154
X9.025Y-3.4807
X9.025Y-3.6461
T10
X4.95Y-1.73
X8.82Y-1.85
T11
X3.45Y-3.865
X3.45Y-5.185
T0
M30
