G04 #@! TF.FileFunction,Legend,Bot*
%FSLAX46Y46*%
G04 Gerber Fmt 4.6, Leading zero omitted, Abs format (unit mm)*
G04 Created by KiCad (PCBNEW 4.0.4-stable) date 12/24/16 13:41:41*
%MOMM*%
%LPD*%
G01*
G04 APERTURE LIST*
%ADD10C,0.100000*%
%ADD11C,0.190500*%
G04 APERTURE END LIST*
D10*
D11*
X217194189Y-101297619D02*
X217194189Y-100281619D01*
X216952284Y-100281619D01*
X216807142Y-100330000D01*
X216710380Y-100426762D01*
X216661999Y-100523524D01*
X216613618Y-100717048D01*
X216613618Y-100862190D01*
X216661999Y-101055714D01*
X216710380Y-101152476D01*
X216807142Y-101249238D01*
X216952284Y-101297619D01*
X217194189Y-101297619D01*
X215791142Y-101249238D02*
X215887904Y-101297619D01*
X216081427Y-101297619D01*
X216178189Y-101249238D01*
X216226570Y-101152476D01*
X216226570Y-100765429D01*
X216178189Y-100668667D01*
X216081427Y-100620286D01*
X215887904Y-100620286D01*
X215791142Y-100668667D01*
X215742761Y-100765429D01*
X215742761Y-100862190D01*
X216226570Y-100958952D01*
X214871904Y-101249238D02*
X214968666Y-101297619D01*
X215162189Y-101297619D01*
X215258951Y-101249238D01*
X215307332Y-101200857D01*
X215355713Y-101104095D01*
X215355713Y-100813810D01*
X215307332Y-100717048D01*
X215258951Y-100668667D01*
X215162189Y-100620286D01*
X214968666Y-100620286D01*
X214871904Y-100668667D01*
X214049428Y-101249238D02*
X214146190Y-101297619D01*
X214339713Y-101297619D01*
X214436475Y-101249238D01*
X214484856Y-101152476D01*
X214484856Y-100765429D01*
X214436475Y-100668667D01*
X214339713Y-100620286D01*
X214146190Y-100620286D01*
X214049428Y-100668667D01*
X214001047Y-100765429D01*
X214001047Y-100862190D01*
X214484856Y-100958952D01*
X213565618Y-101297619D02*
X213565618Y-100620286D01*
X213565618Y-100717048D02*
X213517237Y-100668667D01*
X213420475Y-100620286D01*
X213275333Y-100620286D01*
X213178571Y-100668667D01*
X213130190Y-100765429D01*
X213130190Y-101297619D01*
X213130190Y-100765429D02*
X213081809Y-100668667D01*
X212985047Y-100620286D01*
X212839904Y-100620286D01*
X212743142Y-100668667D01*
X212694761Y-100765429D01*
X212694761Y-101297619D01*
X212210951Y-101297619D02*
X212210951Y-100281619D01*
X212210951Y-100668667D02*
X212114189Y-100620286D01*
X211920666Y-100620286D01*
X211823904Y-100668667D01*
X211775523Y-100717048D01*
X211727142Y-100813810D01*
X211727142Y-101104095D01*
X211775523Y-101200857D01*
X211823904Y-101249238D01*
X211920666Y-101297619D01*
X212114189Y-101297619D01*
X212210951Y-101249238D01*
X210904666Y-101249238D02*
X211001428Y-101297619D01*
X211194951Y-101297619D01*
X211291713Y-101249238D01*
X211340094Y-101152476D01*
X211340094Y-100765429D01*
X211291713Y-100668667D01*
X211194951Y-100620286D01*
X211001428Y-100620286D01*
X210904666Y-100668667D01*
X210856285Y-100765429D01*
X210856285Y-100862190D01*
X211340094Y-100958952D01*
X210420856Y-101297619D02*
X210420856Y-100620286D01*
X210420856Y-100813810D02*
X210372475Y-100717048D01*
X210324094Y-100668667D01*
X210227332Y-100620286D01*
X210130571Y-100620286D01*
X209066190Y-100378381D02*
X209017809Y-100330000D01*
X208921047Y-100281619D01*
X208679143Y-100281619D01*
X208582381Y-100330000D01*
X208534000Y-100378381D01*
X208485619Y-100475143D01*
X208485619Y-100571905D01*
X208534000Y-100717048D01*
X209114571Y-101297619D01*
X208485619Y-101297619D01*
X208146952Y-100281619D02*
X207518000Y-100281619D01*
X207856666Y-100668667D01*
X207711524Y-100668667D01*
X207614762Y-100717048D01*
X207566381Y-100765429D01*
X207518000Y-100862190D01*
X207518000Y-101104095D01*
X207566381Y-101200857D01*
X207614762Y-101249238D01*
X207711524Y-101297619D01*
X208001809Y-101297619D01*
X208098571Y-101249238D01*
X208146952Y-101200857D01*
X206356857Y-100378381D02*
X206308476Y-100330000D01*
X206211714Y-100281619D01*
X205969810Y-100281619D01*
X205873048Y-100330000D01*
X205824667Y-100378381D01*
X205776286Y-100475143D01*
X205776286Y-100571905D01*
X205824667Y-100717048D01*
X206405238Y-101297619D01*
X205776286Y-101297619D01*
X205147333Y-100281619D02*
X205050572Y-100281619D01*
X204953810Y-100330000D01*
X204905429Y-100378381D01*
X204857048Y-100475143D01*
X204808667Y-100668667D01*
X204808667Y-100910571D01*
X204857048Y-101104095D01*
X204905429Y-101200857D01*
X204953810Y-101249238D01*
X205050572Y-101297619D01*
X205147333Y-101297619D01*
X205244095Y-101249238D01*
X205292476Y-101200857D01*
X205340857Y-101104095D01*
X205389238Y-100910571D01*
X205389238Y-100668667D01*
X205340857Y-100475143D01*
X205292476Y-100378381D01*
X205244095Y-100330000D01*
X205147333Y-100281619D01*
X203841048Y-101297619D02*
X204421619Y-101297619D01*
X204131333Y-101297619D02*
X204131333Y-100281619D01*
X204228095Y-100426762D01*
X204324857Y-100523524D01*
X204421619Y-100571905D01*
X202970191Y-100281619D02*
X203163714Y-100281619D01*
X203260476Y-100330000D01*
X203308857Y-100378381D01*
X203405619Y-100523524D01*
X203454000Y-100717048D01*
X203454000Y-101104095D01*
X203405619Y-101200857D01*
X203357238Y-101249238D01*
X203260476Y-101297619D01*
X203066953Y-101297619D01*
X202970191Y-101249238D01*
X202921810Y-101200857D01*
X202873429Y-101104095D01*
X202873429Y-100862190D01*
X202921810Y-100765429D01*
X202970191Y-100717048D01*
X203066953Y-100668667D01*
X203260476Y-100668667D01*
X203357238Y-100717048D01*
X203405619Y-100765429D01*
X203454000Y-100862190D01*
X220919522Y-99011619D02*
X220919522Y-97995619D01*
X220677617Y-97995619D01*
X220532475Y-98044000D01*
X220435713Y-98140762D01*
X220387332Y-98237524D01*
X220338951Y-98431048D01*
X220338951Y-98576190D01*
X220387332Y-98769714D01*
X220435713Y-98866476D01*
X220532475Y-98963238D01*
X220677617Y-99011619D01*
X220919522Y-99011619D01*
X219516475Y-98963238D02*
X219613237Y-99011619D01*
X219806760Y-99011619D01*
X219903522Y-98963238D01*
X219951903Y-98866476D01*
X219951903Y-98479429D01*
X219903522Y-98382667D01*
X219806760Y-98334286D01*
X219613237Y-98334286D01*
X219516475Y-98382667D01*
X219468094Y-98479429D01*
X219468094Y-98576190D01*
X219951903Y-98672952D01*
X219081046Y-98963238D02*
X218984284Y-99011619D01*
X218790760Y-99011619D01*
X218693999Y-98963238D01*
X218645618Y-98866476D01*
X218645618Y-98818095D01*
X218693999Y-98721333D01*
X218790760Y-98672952D01*
X218935903Y-98672952D01*
X219032665Y-98624571D01*
X219081046Y-98527810D01*
X219081046Y-98479429D01*
X219032665Y-98382667D01*
X218935903Y-98334286D01*
X218790760Y-98334286D01*
X218693999Y-98382667D01*
X218210189Y-99011619D02*
X218210189Y-98334286D01*
X218210189Y-97995619D02*
X218258570Y-98044000D01*
X218210189Y-98092381D01*
X218161808Y-98044000D01*
X218210189Y-97995619D01*
X218210189Y-98092381D01*
X217290951Y-98334286D02*
X217290951Y-99156762D01*
X217339332Y-99253524D01*
X217387713Y-99301905D01*
X217484474Y-99350286D01*
X217629617Y-99350286D01*
X217726379Y-99301905D01*
X217290951Y-98963238D02*
X217387713Y-99011619D01*
X217581236Y-99011619D01*
X217677998Y-98963238D01*
X217726379Y-98914857D01*
X217774760Y-98818095D01*
X217774760Y-98527810D01*
X217726379Y-98431048D01*
X217677998Y-98382667D01*
X217581236Y-98334286D01*
X217387713Y-98334286D01*
X217290951Y-98382667D01*
X216807141Y-98334286D02*
X216807141Y-99011619D01*
X216807141Y-98431048D02*
X216758760Y-98382667D01*
X216661998Y-98334286D01*
X216516856Y-98334286D01*
X216420094Y-98382667D01*
X216371713Y-98479429D01*
X216371713Y-99011619D01*
X215500856Y-98963238D02*
X215597618Y-99011619D01*
X215791141Y-99011619D01*
X215887903Y-98963238D01*
X215936284Y-98866476D01*
X215936284Y-98479429D01*
X215887903Y-98382667D01*
X215791141Y-98334286D01*
X215597618Y-98334286D01*
X215500856Y-98382667D01*
X215452475Y-98479429D01*
X215452475Y-98576190D01*
X215936284Y-98672952D01*
X214581618Y-99011619D02*
X214581618Y-97995619D01*
X214581618Y-98963238D02*
X214678380Y-99011619D01*
X214871903Y-99011619D01*
X214968665Y-98963238D01*
X215017046Y-98914857D01*
X215065427Y-98818095D01*
X215065427Y-98527810D01*
X215017046Y-98431048D01*
X214968665Y-98382667D01*
X214871903Y-98334286D01*
X214678380Y-98334286D01*
X214581618Y-98382667D01*
X213323713Y-99011619D02*
X213323713Y-97995619D01*
X213323713Y-98382667D02*
X213226951Y-98334286D01*
X213033428Y-98334286D01*
X212936666Y-98382667D01*
X212888285Y-98431048D01*
X212839904Y-98527810D01*
X212839904Y-98818095D01*
X212888285Y-98914857D01*
X212936666Y-98963238D01*
X213033428Y-99011619D01*
X213226951Y-99011619D01*
X213323713Y-98963238D01*
X212501237Y-98334286D02*
X212259332Y-99011619D01*
X212017428Y-98334286D02*
X212259332Y-99011619D01*
X212356094Y-99253524D01*
X212404475Y-99301905D01*
X212501237Y-99350286D01*
X210275714Y-99011619D02*
X210614380Y-98527810D01*
X210856285Y-99011619D02*
X210856285Y-97995619D01*
X210469238Y-97995619D01*
X210372476Y-98044000D01*
X210324095Y-98092381D01*
X210275714Y-98189143D01*
X210275714Y-98334286D01*
X210324095Y-98431048D01*
X210372476Y-98479429D01*
X210469238Y-98527810D01*
X210856285Y-98527810D01*
X209695142Y-99011619D02*
X209791904Y-98963238D01*
X209840285Y-98914857D01*
X209888666Y-98818095D01*
X209888666Y-98527810D01*
X209840285Y-98431048D01*
X209791904Y-98382667D01*
X209695142Y-98334286D01*
X209550000Y-98334286D01*
X209453238Y-98382667D01*
X209404857Y-98431048D01*
X209356476Y-98527810D01*
X209356476Y-98818095D01*
X209404857Y-98914857D01*
X209453238Y-98963238D01*
X209550000Y-99011619D01*
X209695142Y-99011619D01*
X208921047Y-99011619D02*
X208921047Y-97995619D01*
X208921047Y-98382667D02*
X208824285Y-98334286D01*
X208630762Y-98334286D01*
X208534000Y-98382667D01*
X208485619Y-98431048D01*
X208437238Y-98527810D01*
X208437238Y-98818095D01*
X208485619Y-98914857D01*
X208534000Y-98963238D01*
X208630762Y-99011619D01*
X208824285Y-99011619D01*
X208921047Y-98963238D01*
X207614762Y-98963238D02*
X207711524Y-99011619D01*
X207905047Y-99011619D01*
X208001809Y-98963238D01*
X208050190Y-98866476D01*
X208050190Y-98479429D01*
X208001809Y-98382667D01*
X207905047Y-98334286D01*
X207711524Y-98334286D01*
X207614762Y-98382667D01*
X207566381Y-98479429D01*
X207566381Y-98576190D01*
X208050190Y-98672952D01*
X207130952Y-99011619D02*
X207130952Y-98334286D01*
X207130952Y-98527810D02*
X207082571Y-98431048D01*
X207034190Y-98382667D01*
X206937428Y-98334286D01*
X206840667Y-98334286D01*
X206647143Y-98334286D02*
X206260095Y-98334286D01*
X206502000Y-97995619D02*
X206502000Y-98866476D01*
X206453619Y-98963238D01*
X206356857Y-99011619D01*
X206260095Y-99011619D01*
X205147334Y-99011619D02*
X205147334Y-97995619D01*
X205147334Y-98479429D02*
X204566763Y-98479429D01*
X204566763Y-99011619D02*
X204566763Y-97995619D01*
X204082953Y-99011619D02*
X204082953Y-98334286D01*
X204082953Y-97995619D02*
X204131334Y-98044000D01*
X204082953Y-98092381D01*
X204034572Y-98044000D01*
X204082953Y-97995619D01*
X204082953Y-98092381D01*
X203212096Y-98963238D02*
X203308858Y-99011619D01*
X203502381Y-99011619D01*
X203599143Y-98963238D01*
X203647524Y-98866476D01*
X203647524Y-98479429D01*
X203599143Y-98382667D01*
X203502381Y-98334286D01*
X203308858Y-98334286D01*
X203212096Y-98382667D01*
X203163715Y-98479429D01*
X203163715Y-98576190D01*
X203647524Y-98672952D01*
X202728286Y-99011619D02*
X202728286Y-97995619D01*
X202728286Y-98382667D02*
X202631524Y-98334286D01*
X202438001Y-98334286D01*
X202341239Y-98382667D01*
X202292858Y-98431048D01*
X202244477Y-98527810D01*
X202244477Y-98818095D01*
X202292858Y-98914857D01*
X202341239Y-98963238D01*
X202438001Y-99011619D01*
X202631524Y-99011619D01*
X202728286Y-98963238D01*
X201422001Y-98963238D02*
X201518763Y-99011619D01*
X201712286Y-99011619D01*
X201809048Y-98963238D01*
X201857429Y-98866476D01*
X201857429Y-98479429D01*
X201809048Y-98382667D01*
X201712286Y-98334286D01*
X201518763Y-98334286D01*
X201422001Y-98382667D01*
X201373620Y-98479429D01*
X201373620Y-98576190D01*
X201857429Y-98672952D01*
X200938191Y-99011619D02*
X200938191Y-98334286D01*
X200938191Y-98527810D02*
X200889810Y-98431048D01*
X200841429Y-98382667D01*
X200744667Y-98334286D01*
X200647906Y-98334286D01*
X200454382Y-98334286D02*
X200067334Y-98334286D01*
X200309239Y-97995619D02*
X200309239Y-98866476D01*
X200260858Y-98963238D01*
X200164096Y-99011619D01*
X200067334Y-99011619D01*
X219734189Y-96979619D02*
X219734189Y-95963619D01*
X218718189Y-96012000D02*
X218814951Y-95963619D01*
X218960094Y-95963619D01*
X219105236Y-96012000D01*
X219201998Y-96108762D01*
X219250379Y-96205524D01*
X219298760Y-96399048D01*
X219298760Y-96544190D01*
X219250379Y-96737714D01*
X219201998Y-96834476D01*
X219105236Y-96931238D01*
X218960094Y-96979619D01*
X218863332Y-96979619D01*
X218718189Y-96931238D01*
X218669808Y-96882857D01*
X218669808Y-96544190D01*
X218863332Y-96544190D01*
X218234379Y-96979619D02*
X218234379Y-95963619D01*
X217653808Y-96979619D01*
X217653808Y-95963619D01*
X216444284Y-95915238D02*
X217315141Y-97221524D01*
X216105617Y-96979619D02*
X216105617Y-95963619D01*
X215621807Y-96979619D02*
X215621807Y-95963619D01*
X215041236Y-96979619D01*
X215041236Y-95963619D01*
X214267141Y-95963619D02*
X214267141Y-96689333D01*
X214315521Y-96834476D01*
X214412283Y-96931238D01*
X214557426Y-96979619D01*
X214654188Y-96979619D01*
X213009236Y-96979619D02*
X213009236Y-95963619D01*
X213009236Y-96447429D02*
X212428665Y-96447429D01*
X212428665Y-96979619D02*
X212428665Y-95963619D01*
X211557808Y-96931238D02*
X211654570Y-96979619D01*
X211848093Y-96979619D01*
X211944855Y-96931238D01*
X211993236Y-96834476D01*
X211993236Y-96447429D01*
X211944855Y-96350667D01*
X211848093Y-96302286D01*
X211654570Y-96302286D01*
X211557808Y-96350667D01*
X211509427Y-96447429D01*
X211509427Y-96544190D01*
X211993236Y-96640952D01*
X211170760Y-96979619D02*
X210638570Y-96302286D01*
X211170760Y-96302286D02*
X210638570Y-96979619D01*
X209477427Y-96979619D02*
X209477427Y-95963619D01*
X209235522Y-95963619D01*
X209090380Y-96012000D01*
X208993618Y-96108762D01*
X208945237Y-96205524D01*
X208896856Y-96399048D01*
X208896856Y-96544190D01*
X208945237Y-96737714D01*
X208993618Y-96834476D01*
X209090380Y-96931238D01*
X209235522Y-96979619D01*
X209477427Y-96979619D01*
X208461427Y-96979619D02*
X208461427Y-96302286D01*
X208461427Y-96495810D02*
X208413046Y-96399048D01*
X208364665Y-96350667D01*
X208267903Y-96302286D01*
X208171142Y-96302286D01*
X207832475Y-96979619D02*
X207832475Y-96302286D01*
X207832475Y-95963619D02*
X207880856Y-96012000D01*
X207832475Y-96060381D01*
X207784094Y-96012000D01*
X207832475Y-95963619D01*
X207832475Y-96060381D01*
X207445427Y-96302286D02*
X207203522Y-96979619D01*
X206961618Y-96302286D01*
X206187523Y-96931238D02*
X206284285Y-96979619D01*
X206477808Y-96979619D01*
X206574570Y-96931238D01*
X206622951Y-96834476D01*
X206622951Y-96447429D01*
X206574570Y-96350667D01*
X206477808Y-96302286D01*
X206284285Y-96302286D01*
X206187523Y-96350667D01*
X206139142Y-96447429D01*
X206139142Y-96544190D01*
X206622951Y-96640952D01*
X205703713Y-96979619D02*
X205703713Y-96302286D01*
X205703713Y-96495810D02*
X205655332Y-96399048D01*
X205606951Y-96350667D01*
X205510189Y-96302286D01*
X205413428Y-96302286D01*
X203962000Y-96447429D02*
X203816857Y-96495810D01*
X203768476Y-96544190D01*
X203720095Y-96640952D01*
X203720095Y-96786095D01*
X203768476Y-96882857D01*
X203816857Y-96931238D01*
X203913619Y-96979619D01*
X204300666Y-96979619D01*
X204300666Y-95963619D01*
X203962000Y-95963619D01*
X203865238Y-96012000D01*
X203816857Y-96060381D01*
X203768476Y-96157143D01*
X203768476Y-96253905D01*
X203816857Y-96350667D01*
X203865238Y-96399048D01*
X203962000Y-96447429D01*
X204300666Y-96447429D01*
X203139523Y-96979619D02*
X203236285Y-96931238D01*
X203284666Y-96882857D01*
X203333047Y-96786095D01*
X203333047Y-96495810D01*
X203284666Y-96399048D01*
X203236285Y-96350667D01*
X203139523Y-96302286D01*
X202994381Y-96302286D01*
X202897619Y-96350667D01*
X202849238Y-96399048D01*
X202800857Y-96495810D01*
X202800857Y-96786095D01*
X202849238Y-96882857D01*
X202897619Y-96931238D01*
X202994381Y-96979619D01*
X203139523Y-96979619D01*
X201930000Y-96979619D02*
X201930000Y-96447429D01*
X201978381Y-96350667D01*
X202075143Y-96302286D01*
X202268666Y-96302286D01*
X202365428Y-96350667D01*
X201930000Y-96931238D02*
X202026762Y-96979619D01*
X202268666Y-96979619D01*
X202365428Y-96931238D01*
X202413809Y-96834476D01*
X202413809Y-96737714D01*
X202365428Y-96640952D01*
X202268666Y-96592571D01*
X202026762Y-96592571D01*
X201930000Y-96544190D01*
X201446190Y-96979619D02*
X201446190Y-96302286D01*
X201446190Y-96495810D02*
X201397809Y-96399048D01*
X201349428Y-96350667D01*
X201252666Y-96302286D01*
X201155905Y-96302286D01*
X200381810Y-96979619D02*
X200381810Y-95963619D01*
X200381810Y-96931238D02*
X200478572Y-96979619D01*
X200672095Y-96979619D01*
X200768857Y-96931238D01*
X200817238Y-96882857D01*
X200865619Y-96786095D01*
X200865619Y-96495810D01*
X200817238Y-96399048D01*
X200768857Y-96350667D01*
X200672095Y-96302286D01*
X200478572Y-96302286D01*
X200381810Y-96350667D01*
M02*
